<mxfile host="Electron" modified="2023-11-02T12:09:51.095Z" agent="Mozilla/5.0 (Windows NT 10.0; Win64; x64) AppleWebKit/537.36 (KHTML, like Gecko) draw.io/22.0.3 Chrome/114.0.5735.289 Electron/25.8.4 Safari/537.36" etag="RwqbDg8gScG9cviK5Bs-" version="22.0.3" type="device">
  <diagram name="第 1 页" id="zP6ELo0QirrOtNkLsAlN">
    <mxGraphModel dx="1036" dy="614" grid="1" gridSize="10" guides="1" tooltips="1" connect="1" arrows="1" fold="1" page="1" pageScale="1" pageWidth="827" pageHeight="1169" math="0" shadow="0">
      <root>
        <mxCell id="0" />
        <mxCell id="1" parent="0" />
        <mxCell id="dLLwdzMDrtIUwV2yhBUh-1" value="" style="rounded=1;whiteSpace=wrap;html=1;glass=0;shadow=0;fillColor=#f8cecc;strokeColor=#b85450;align=center;horizontal=1;verticalAlign=middle;labelPosition=center;verticalLabelPosition=middle;" parent="1" vertex="1">
          <mxGeometry x="30" y="30" width="740" height="270" as="geometry" />
        </mxCell>
        <mxCell id="dLLwdzMDrtIUwV2yhBUh-2" value="" style="rounded=1;whiteSpace=wrap;html=1;fillColor=#ffe6cc;strokeColor=#696969;" parent="1" vertex="1">
          <mxGeometry x="30" y="310" width="740" height="230" as="geometry" />
        </mxCell>
        <mxCell id="dLLwdzMDrtIUwV2yhBUh-4" value="" style="rounded=1;whiteSpace=wrap;html=1;fillColor=#dae8fc;strokeColor=#6c8ebf;" parent="1" vertex="1">
          <mxGeometry x="430" y="870" width="330" height="230" as="geometry" />
        </mxCell>
        <mxCell id="dLLwdzMDrtIUwV2yhBUh-7" value="合约端" style="text;strokeColor=none;align=center;fillColor=none;html=1;verticalAlign=middle;whiteSpace=wrap;rounded=0;fontStyle=1;fontSize=17;" parent="1" vertex="1">
          <mxGeometry x="680" y="250" width="70" height="40" as="geometry" />
        </mxCell>
        <mxCell id="dLLwdzMDrtIUwV2yhBUh-8" value="前端" style="text;strokeColor=none;align=center;fillColor=none;html=1;verticalAlign=middle;whiteSpace=wrap;rounded=0;fontStyle=1;fontSize=17;" parent="1" vertex="1">
          <mxGeometry x="680" y="490" width="70" height="40" as="geometry" />
        </mxCell>
        <mxCell id="dLLwdzMDrtIUwV2yhBUh-9" value="后端" style="text;strokeColor=none;align=center;fillColor=none;html=1;verticalAlign=middle;whiteSpace=wrap;rounded=0;fontStyle=1;fontSize=17;" parent="1" vertex="1">
          <mxGeometry x="460" y="910" width="70" height="40" as="geometry" />
        </mxCell>
        <mxCell id="E3nbPiYvrUI118agpHxc-25" style="edgeStyle=orthogonalEdgeStyle;rounded=0;orthogonalLoop=1;jettySize=auto;html=1;exitX=0.25;exitY=0;exitDx=0;exitDy=0;entryX=0.19;entryY=0.997;entryDx=0;entryDy=0;entryPerimeter=0;" edge="1" parent="1" source="dLLwdzMDrtIUwV2yhBUh-10" target="E3nbPiYvrUI118agpHxc-24">
          <mxGeometry relative="1" as="geometry">
            <Array as="points">
              <mxPoint x="130" y="140" />
              <mxPoint x="257" y="140" />
            </Array>
          </mxGeometry>
        </mxCell>
        <mxCell id="E3nbPiYvrUI118agpHxc-26" value="付款" style="edgeLabel;html=1;align=center;verticalAlign=middle;resizable=0;points=[];labelBackgroundColor=none;fontSize=13;" vertex="1" connectable="0" parent="E3nbPiYvrUI118agpHxc-25">
          <mxGeometry x="0.1026" relative="1" as="geometry">
            <mxPoint as="offset" />
          </mxGeometry>
        </mxCell>
        <mxCell id="dLLwdzMDrtIUwV2yhBUh-10" value="用户购买模块" style="rounded=1;whiteSpace=wrap;html=1;gradientColor=#f8cecc;fontSize=16;" parent="1" vertex="1">
          <mxGeometry x="100" y="190" width="120" height="60" as="geometry" />
        </mxCell>
        <mxCell id="E3nbPiYvrUI118agpHxc-7" style="edgeStyle=orthogonalEdgeStyle;rounded=0;orthogonalLoop=1;jettySize=auto;html=1;" edge="1" parent="1" source="E3nbPiYvrUI118agpHxc-1" target="dLLwdzMDrtIUwV2yhBUh-10">
          <mxGeometry relative="1" as="geometry" />
        </mxCell>
        <mxCell id="E3nbPiYvrUI118agpHxc-9" style="edgeStyle=orthogonalEdgeStyle;rounded=0;orthogonalLoop=1;jettySize=auto;html=1;" edge="1" parent="1" source="E3nbPiYvrUI118agpHxc-1" target="E3nbPiYvrUI118agpHxc-4">
          <mxGeometry relative="1" as="geometry">
            <Array as="points">
              <mxPoint x="160" y="280" />
              <mxPoint x="414" y="280" />
            </Array>
          </mxGeometry>
        </mxCell>
        <mxCell id="E3nbPiYvrUI118agpHxc-10" value="赋予访问权限" style="edgeLabel;align=center;verticalAlign=middle;resizable=0;points=[];fontSize=13;labelBorderColor=none;html=1;labelBackgroundColor=none;" vertex="1" connectable="0" parent="E3nbPiYvrUI118agpHxc-9">
          <mxGeometry x="-0.8144" relative="1" as="geometry">
            <mxPoint as="offset" />
          </mxGeometry>
        </mxCell>
        <mxCell id="E3nbPiYvrUI118agpHxc-13" value="赋予访问权限" style="edgeLabel;align=center;verticalAlign=middle;resizable=0;points=[];fontSize=13;labelBorderColor=none;html=1;labelBackgroundColor=none;" vertex="1" connectable="0" parent="E3nbPiYvrUI118agpHxc-9">
          <mxGeometry x="-0.8144" relative="1" as="geometry">
            <mxPoint y="121" as="offset" />
          </mxGeometry>
        </mxCell>
        <mxCell id="E3nbPiYvrUI118agpHxc-11" style="edgeStyle=orthogonalEdgeStyle;rounded=0;orthogonalLoop=1;jettySize=auto;html=1;" edge="1" parent="1" source="E3nbPiYvrUI118agpHxc-1" target="E3nbPiYvrUI118agpHxc-2">
          <mxGeometry relative="1" as="geometry" />
        </mxCell>
        <mxCell id="E3nbPiYvrUI118agpHxc-1" value="&lt;font style=&quot;font-size: 16px;&quot;&gt;用户登录模块&lt;/font&gt;" style="rounded=1;whiteSpace=wrap;html=1;fillColor=#ffe6cc;strokeColor=#676665;glass=1;horizontal=1;" vertex="1" parent="1">
          <mxGeometry x="100" y="330" width="120" height="60" as="geometry" />
        </mxCell>
        <mxCell id="E3nbPiYvrUI118agpHxc-2" value="&lt;font style=&quot;font-size: 16px;&quot;&gt;个人主页模块&lt;/font&gt;" style="rounded=1;whiteSpace=wrap;html=1;fillColor=#ffe6cc;strokeColor=#696969;glass=1;shadow=0;" vertex="1" parent="1">
          <mxGeometry x="100" y="450" width="120" height="60" as="geometry" />
        </mxCell>
        <mxCell id="E3nbPiYvrUI118agpHxc-18" style="edgeStyle=orthogonalEdgeStyle;rounded=0;orthogonalLoop=1;jettySize=auto;html=1;entryX=1;entryY=0.5;entryDx=0;entryDy=0;" edge="1" parent="1" source="E3nbPiYvrUI118agpHxc-3" target="dLLwdzMDrtIUwV2yhBUh-10">
          <mxGeometry relative="1" as="geometry" />
        </mxCell>
        <mxCell id="E3nbPiYvrUI118agpHxc-19" value="展示商品" style="edgeLabel;html=1;align=center;verticalAlign=middle;resizable=0;points=[];labelBackgroundColor=none;fontSize=13;" vertex="1" connectable="0" parent="E3nbPiYvrUI118agpHxc-18">
          <mxGeometry x="-0.2482" y="1" relative="1" as="geometry">
            <mxPoint as="offset" />
          </mxGeometry>
        </mxCell>
        <mxCell id="E3nbPiYvrUI118agpHxc-3" value="&lt;font style=&quot;font-size: 16px;&quot;&gt;市场页面模块&lt;/font&gt;" style="rounded=1;whiteSpace=wrap;html=1;fillColor=#ffe6cc;strokeColor=#676665;glass=1;" vertex="1" parent="1">
          <mxGeometry x="354" y="330" width="120" height="60" as="geometry" />
        </mxCell>
        <mxCell id="E3nbPiYvrUI118agpHxc-14" style="edgeStyle=orthogonalEdgeStyle;rounded=0;orthogonalLoop=1;jettySize=auto;html=1;entryX=1;entryY=0.25;entryDx=0;entryDy=0;" edge="1" parent="1" source="E3nbPiYvrUI118agpHxc-4" target="E3nbPiYvrUI118agpHxc-6">
          <mxGeometry relative="1" as="geometry">
            <Array as="points">
              <mxPoint x="530" y="220" />
              <mxPoint x="530" y="455" />
            </Array>
          </mxGeometry>
        </mxCell>
        <mxCell id="E3nbPiYvrUI118agpHxc-15" value="利用买方公钥加密链接" style="edgeLabel;html=1;align=center;verticalAlign=middle;resizable=0;points=[];labelBackgroundColor=none;fontSize=13;" vertex="1" connectable="0" parent="E3nbPiYvrUI118agpHxc-14">
          <mxGeometry x="-0.0055" y="1" relative="1" as="geometry">
            <mxPoint x="9" y="66" as="offset" />
          </mxGeometry>
        </mxCell>
        <mxCell id="E3nbPiYvrUI118agpHxc-16" style="edgeStyle=orthogonalEdgeStyle;rounded=0;orthogonalLoop=1;jettySize=auto;html=1;exitX=0.643;exitY=1.017;exitDx=0;exitDy=0;exitPerimeter=0;" edge="1" parent="1" source="E3nbPiYvrUI118agpHxc-4" target="E3nbPiYvrUI118agpHxc-3">
          <mxGeometry relative="1" as="geometry">
            <Array as="points">
              <mxPoint x="431" y="250" />
              <mxPoint x="430" y="250" />
            </Array>
          </mxGeometry>
        </mxCell>
        <mxCell id="E3nbPiYvrUI118agpHxc-17" value="上架" style="edgeLabel;html=1;align=center;verticalAlign=middle;resizable=0;points=[];fontSize=13;labelBackgroundColor=none;" vertex="1" connectable="0" parent="E3nbPiYvrUI118agpHxc-16">
          <mxGeometry x="-0.3379" y="4" relative="1" as="geometry">
            <mxPoint x="-4" y="25" as="offset" />
          </mxGeometry>
        </mxCell>
        <mxCell id="E3nbPiYvrUI118agpHxc-4" value="用户发布模块" style="rounded=1;whiteSpace=wrap;html=1;gradientColor=#f8cecc;fontSize=16;" vertex="1" parent="1">
          <mxGeometry x="354" y="190" width="120" height="60" as="geometry" />
        </mxCell>
        <mxCell id="E3nbPiYvrUI118agpHxc-22" style="edgeStyle=orthogonalEdgeStyle;rounded=0;orthogonalLoop=1;jettySize=auto;html=1;entryX=0.5;entryY=0;entryDx=0;entryDy=0;" edge="1" parent="1" source="E3nbPiYvrUI118agpHxc-5" target="dLLwdzMDrtIUwV2yhBUh-10">
          <mxGeometry relative="1" as="geometry">
            <Array as="points">
              <mxPoint x="670" y="170" />
              <mxPoint x="160" y="170" />
            </Array>
          </mxGeometry>
        </mxCell>
        <mxCell id="E3nbPiYvrUI118agpHxc-23" value="返回加密链接给买方" style="edgeLabel;html=1;align=center;verticalAlign=middle;resizable=0;points=[];labelBackgroundColor=none;fontSize=13;rotation=0;" vertex="1" connectable="0" parent="E3nbPiYvrUI118agpHxc-22">
          <mxGeometry x="0.0233" y="2" relative="1" as="geometry">
            <mxPoint x="151" y="-22" as="offset" />
          </mxGeometry>
        </mxCell>
        <mxCell id="E3nbPiYvrUI118agpHxc-5" value="链接传输模块" style="rounded=1;whiteSpace=wrap;html=1;gradientColor=#f8cecc;fontSize=16;" vertex="1" parent="1">
          <mxGeometry x="610" y="190" width="120" height="60" as="geometry" />
        </mxCell>
        <mxCell id="E3nbPiYvrUI118agpHxc-20" style="edgeStyle=orthogonalEdgeStyle;rounded=0;orthogonalLoop=1;jettySize=auto;html=1;" edge="1" parent="1" source="E3nbPiYvrUI118agpHxc-6" target="E3nbPiYvrUI118agpHxc-5">
          <mxGeometry relative="1" as="geometry" />
        </mxCell>
        <mxCell id="E3nbPiYvrUI118agpHxc-21" value="将加密后链接返回合约" style="edgeLabel;html=1;align=center;verticalAlign=middle;resizable=0;points=[];labelBackgroundColor=none;fontSize=13;" vertex="1" connectable="0" parent="E3nbPiYvrUI118agpHxc-20">
          <mxGeometry x="0.2788" relative="1" as="geometry">
            <mxPoint y="-50" as="offset" />
          </mxGeometry>
        </mxCell>
        <mxCell id="E3nbPiYvrUI118agpHxc-6" value="&lt;span style=&quot;font-size: 16px;&quot;&gt;链接加密模块&lt;/span&gt;" style="rounded=1;whiteSpace=wrap;html=1;fillColor=#ffe6cc;strokeColor=#676665;glass=1;" vertex="1" parent="1">
          <mxGeometry x="354" y="440" width="120" height="60" as="geometry" />
        </mxCell>
        <mxCell id="E3nbPiYvrUI118agpHxc-27" style="edgeStyle=orthogonalEdgeStyle;rounded=0;orthogonalLoop=1;jettySize=auto;html=1;" edge="1" parent="1" source="E3nbPiYvrUI118agpHxc-24" target="E3nbPiYvrUI118agpHxc-4">
          <mxGeometry relative="1" as="geometry">
            <Array as="points">
              <mxPoint x="414" y="90" />
            </Array>
          </mxGeometry>
        </mxCell>
        <mxCell id="E3nbPiYvrUI118agpHxc-28" value="收取部分手续费后&lt;br style=&quot;font-size: 13px;&quot;&gt;打款给卖方" style="edgeLabel;html=1;align=center;verticalAlign=middle;resizable=0;points=[];labelBackgroundColor=none;fontSize=13;" vertex="1" connectable="0" parent="E3nbPiYvrUI118agpHxc-27">
          <mxGeometry x="0.1375" y="-2" relative="1" as="geometry">
            <mxPoint x="2" y="9" as="offset" />
          </mxGeometry>
        </mxCell>
        <mxCell id="E3nbPiYvrUI118agpHxc-24" value="支付模块" style="rounded=1;whiteSpace=wrap;html=1;gradientColor=#f8cecc;fontSize=16;" vertex="1" parent="1">
          <mxGeometry x="234" y="60" width="120" height="60" as="geometry" />
        </mxCell>
      </root>
    </mxGraphModel>
  </diagram>
</mxfile>
